<svg xmlns="http://www.w3.org/2000/svg" width="3012.24" height="2720.76" viewBox="0 0 3586 3239">
  <defs>
    <style>
      .cls-1 {
        fill: #fff;
      }

      .cls-1, .cls-2, .cls-3, .cls-4 {
        fill-rule: evenodd;
      }

      .cls-3 {
        fill: #fefefe;
      }

      .cls-4 {
        fill: #4e4e4e;
      }
    </style>
  </defs>
  <path id="Q" class="cls-1" d="M2471.91,2061.98q-4.59,4.5-6.6,4.5-84.405,72.66-140.83,101.35-56.445,28.635-146.92,28.65-73.23,0-135.25-16.87-62.025-16.905-197.25-94.66-37.62-20.475-43.71-20.47v-5q43.71-10.17,90.49-24.9a716.332,716.332,0,0,0,89.98-35.1q43.215-20.34,88.97-51.86t100.66-83.39q120.975-114.885,184.53-266.42,63.54-151.515,63.54-310.17,0-161.67-59.98-305.578-60-143.907-168.27-253.219T1938.12,558.5q-144.9-61.008-305.52-61.015-209.43,0-391.94,101.187-182.505,101.2-293.323,282.719T836.524,1285.62q0,74.25,16.266,154.07a815.8,815.8,0,0,0,47.781,154.57q31.524,74.775,74.235,136.79,54.891,80.34,118.434,139.31,63.54,59,126.58,95.09t102.19,50.85q39.135,14.76,125.56,41.18,22.365,11.835,24.39,14,218.58,111.75,343.63,170.71,72.18,34.515,126.57,52.82,54.4,18.27,89.99,24.38a421.246,421.246,0,0,0,71.19,6.09q112.845,0,206.4-70.11t191.16-181.89l-23.39-16C2476.82,2057.48,2474.96,2058.98,2471.91,2061.98ZM2067.7,1845.5q-77.28,89.43-189.6,137.22-112.335,47.76-241.44,47.76a710.932,710.932,0,0,1-146.9-15.75,570.517,570.517,0,0,1-143.86-51.32q-69.135-35.58-128.09-91.49-93.525-90.45-147.41-238.34t-53.88-352.19q0-209.385,58.96-355.234t154.01-230.219q95.07-84.375,198.25-117.906t202.82-33.547q96.555,0,198.23,32.531t195.7,114.844q94.035,82.335,155.03,232.25t61,373.551q0,346.59-172.82,547.84h0Z"/>
  <path id="Q-2" data-name="Q" class="cls-2" d="M2363.46,2061.81q-4.59,4.5-6.61,4.5-84.39,72.66-140.82,101.35-56.445,28.635-146.93,28.65-73.215,0-135.25-16.87-62.01-16.905-197.25-94.66-37.605-20.475-43.7-20.47v-5q43.71-10.17,90.49-24.9a716.332,716.332,0,0,0,89.98-35.1q43.215-20.34,88.97-51.86T2063,1864.06q120.975-114.885,184.53-266.42,63.54-151.515,63.54-310.17,0-161.67-59.98-305.578-60-143.907-168.27-253.219T1829.67,558.329q-144.9-61.008-305.52-61.016-209.43,0-391.94,101.188Q949.705,699.7,838.886,881.22T728.073,1285.45q0,74.25,16.266,154.07a815.8,815.8,0,0,0,47.781,154.57q31.524,74.775,74.235,136.79,54.89,80.34,118.437,139.31,63.537,58.995,126.578,95.09t102.19,50.85q39.135,14.76,125.56,41.18,22.365,11.835,24.39,14,218.58,111.75,343.63,170.71,72.18,34.515,126.57,52.82,54.4,18.27,89.99,24.38a421.246,421.246,0,0,0,71.19,6.09q112.845,0,206.4-70.11,93.54-70.125,191.16-181.89l-23.39-16C2368.37,2057.31,2366.51,2058.81,2363.46,2061.81Zm-404.21-216.48q-77.28,89.43-189.6,137.22-112.335,47.76-241.44,47.76a710.932,710.932,0,0,1-146.9-15.75,570.517,570.517,0,0,1-143.86-51.32q-69.15-35.58-128.1-91.49-93.51-90.45-147.4-238.34t-53.875-352.19q0-209.385,58.954-355.235Q1026,780.134,1121.04,695.767q95.07-84.375,198.25-117.907t202.81-33.547q96.57,0,198.24,32.532t195.7,114.843q94.035,82.337,155.03,232.25t61,373.552q0,346.59-172.82,547.84h0Z"/>
  <path id="H" class="cls-3" d="M1946.06,1975.75V1474.5q0-74.2,39.15-120.48t123.58-46.27v-17H1631.37v17q159.675,0,159.69,166.74V2607.05q0,78.285-41.21,121.5-41.19,43.215-118.48,43.2v17h477.42v-17q-74.25,0-118.5-43.19-44.25-43.17-44.23-121.45V2021.75h858v587.39q0,80.3-43.24,121.46-43.215,41.145-119.5,41.15v17h477.44v-17q-160.71,0-160.7-164.7V1474.49q0-74.205,38.64-120.47t122.06-46.27v-17H2641.32v17q83.4,0,123.07,46.78,39.645,46.785,39.67,119.97v501.25h-858Z"/>
  <path id="H-2" data-name="H" class="cls-4" d="M1874.42,1975.8V1474.55q0-74.205,39.15-120.48t123.58-46.27v-17H1559.73v17q159.675,0,159.69,166.74V2607.1q0,78.285-41.21,121.5-41.19,43.215-118.48,43.2v17h477.42v-17q-74.25,0-118.5-43.18t-44.23-121.46V2021.8h858v587.39q0,80.295-43.24,121.46-43.215,41.145-119.5,41.15v17h477.44v-17q-160.71,0-160.7-164.7V1474.54q0-74.2,38.64-120.47t122.06-46.27v-17H2569.68v17q83.4,0,123.07,46.78,39.645,46.785,39.67,119.97V1975.8h-858Z"/>
</svg>
